<?xml version="1.0" encoding="UTF-8"?>
<!DOCTYPE svg PUBLIC "-//W3C//DTD SVG 1.1//EN" "http://www.w3.org/Graphics/SVG/1.1/DTD/svg11.dtd">
<!-- Creator: CorelDRAW 2020 (64-Bit) -->
<svg xmlns="http://www.w3.org/2000/svg" xml:space="preserve" width="50.8842mm" height="49.9538mm" version="1.1" style="shape-rendering:geometricPrecision; text-rendering:geometricPrecision; image-rendering:optimizeQuality; fill-rule:evenodd; clip-rule:evenodd"
viewBox="0 0 1985.51 1949.21"
 xmlns:xlink="http://www.w3.org/1999/xlink"
 xmlns:xodm="http://www.corel.com/coreldraw/odm/2003">
 <defs>
  <style type="text/css">
   <![CDATA[
    .fil0 {fill:#271970}
   ]]>
  </style>
 </defs>
 <g id="Capa_x0020_1">
  <metadata id="CorelCorpID_0Corel-Layer"/>
  <g id="_2289904477632">
   <path class="fil0" d="M1453.82 1796.32c-0.04,-45.99 -4.09,-48.88 8.24,-49.06 36.61,-0.53 73.23,-3.43 78.96,49.74l-87.19 -0.67zm166.54 151.48l0.02 -93.98 -78.69 0 -0.07 20.66c-19.35,0.05 -44.05,2.72 -59.46,-4.72 -12.92,-6.23 -22.93,-20.6 -25.55,-38.14 59.26,-2.87 117.69,3.93 164.74,0.53 3.2,-67.64 -17.19,-118.85 -59.81,-142.07 -25.18,-13.72 -51.35,-16.41 -84.76,-16.31 -32.87,0.09 -68.49,-1.68 -101,-0.01l-0.36 128.64c0.4,40.4 8.69,77.47 27.92,102.58 17,22.18 46.93,40.13 86.45,42.52 40.99,2.47 88.95,0.58 130.58,0.3z"/>
   <path class="fil0" d="M1247.9 1874.48c-40.99,0.18 -65.82,4.21 -79.86,-28.02 -8.1,-18.6 -9.17,-74.73 -6.56,-99.12 39.42,-0.62 64.7,-3.47 78.97,26.99 11.01,23.51 7.37,70.45 7.45,100.16zm-43.66 74.73l122.3 0c3.42,-10.48 0.27,-107.62 0.12,-127.91 -0.31,-41.11 -7.59,-76.84 -27.35,-103.08 -36.8,-48.88 -93.81,-44.76 -151.05,-44.67 -20.98,0.03 -45.61,-1.15 -66.13,0.25 -3.7,25.11 0.54,70.08 0.53,96.63 -0.02,67.27 0.59,143.76 78.52,170.07 22.39,7.56 30.83,5.22 40.57,7.82l2.49 0.89z"/>
   <path class="fil0" d="M868.27 1796.95c2.81,-32.65 20.93,-49.7 53.25,-49.68l32.93 0.48 0.08 49.13 -86.26 0.07zm-79.71 150.96l78.48 0.05 -0.71 -116.25 88.11 -0.24 0.08 116.44 79.4 -0.03c-5.83,-21.58 3.04,-244.3 -1.45,-273.86l-127.6 0.24c-126.15,11.1 -116.98,117.9 -116.89,208.09 0.02,17.37 -1.85,50.12 0.59,65.57z"/>
   <path class="fil0" d="M494.2 1947l79.13 -0.69c-1.95,-10.98 -1.04,-191 -0.55,-200.49 45.71,-1.83 82.93,-3.39 87.23,56.56 1.89,26.37 0.33,110.82 0.39,143.61l78.76 0.25c0.18,-43.24 0.43,-86.52 -0.02,-129.31 -0.84,-78.92 -30.5,-136.55 -115.14,-144.13l-129.27 -0.14 -0.52 274.33z"/>
   <path class="fil0" d="M-0 1014.76c12.92,5.62 27.17,16.05 42.12,21.9 1.82,-1.7 1.09,-0.89 2.81,-3.22l83.79 -135.69c15.22,-24.46 251.14,-404.06 257.56,-417.82l-41.65 -24.47 -85.92 138.99c-71.18,117.2 -144.61,232.62 -215.75,349.67l-42.96 70.64z"/>
   <polygon class="fil0" points="928.87,1627.12 1618.31,1627.1 1618.79,1580.79 931,1580.46 "/>
   <path class="fil0" d="M1316.67 26.16l343.25 556.23 43.3 -21c-3.13,-7.85 -15.58,-26.5 -20.76,-34.58 -49.84,-77.7 -102.39,-166.12 -151.5,-245.29 -6.6,-10.65 -165.15,-269.64 -172.74,-279.17 -3.81,3.41 -33.69,16.18 -41.55,23.81z"/>
   <path class="fil0" d="M934.12 1535.96l680.13 -0.1c-0.36,-6.96 -4.1,-34.05 -7.24,-37.96 -1.32,-1.32 -0.75,-1.47 -8,-1.58l-577.2 -0.03c-26.82,0 -57.18,-1.35 -83.56,0.16l-4.13 39.5z"/>
   <path class="fil0" d="M1244.77 75.59c5.22,10.59 13.81,22.6 20.13,33.13l271.65 440.63c7.02,11.36 14.02,22.44 21.06,34.13 6.08,10.11 16.37,24.48 20.74,34.33l38.95 -16.14c-22.36,-38.7 -59.95,-97.94 -84.62,-137.28 -71.11,-113.44 -141.81,-230.62 -212.47,-344.22 -7.37,-11.85 -14.09,-22.65 -21.06,-34.17 -7.39,-12.19 -15.71,-23.69 -21.35,-35.14 -5.78,2.59 -28.63,20.21 -33.03,24.75z"/>
   <path class="fil0" d="M943.34 1459.97l654.75 -0.1c0.4,-5.55 -9.9,-34.15 -12.21,-40.9l-636.07 -0.03 -6.47 41.03z"/>
   <path class="fil0" d="M1184.53 131.76c20.74,36.68 55.37,90.11 78.86,128.2 26.46,42.93 52.97,85.63 79.3,128.56l158.77 258.24 41.78 -14.77c-24.06,-41.76 -55.83,-89.37 -81.86,-132.62 -27.06,-44.96 -54.23,-87.83 -82.13,-132.98l-123.2 -199.47c-6.89,-11.39 -13.82,-22.48 -20.47,-33.35 -5.29,-8.64 -14.59,-25.47 -20.42,-32.3l-30.6 30.49z"/>
   <path class="fil0" d="M86.12 1055.28l38.71 14.47c6.35,-7.63 15.09,-23.99 20.73,-33.03l62.73 -101.52c27.52,-45.47 55.75,-90.5 83.73,-135.82l167.33 -271.73 -33.41 -22.92c-4.07,3.89 -17.05,26.57 -21.35,33.51 -99.08,159.78 -197.42,323.61 -297.12,482.02 -6.83,10.86 -16.2,24.49 -21.34,35.03z"/>
   <path class="fil0" d="M164.82 1081.1l44.03 10.09c20.72,-37.26 55.26,-89.02 79.16,-128.61 26.3,-43.56 53.08,-84.26 79.39,-128.45l119.19 -193.36c6.6,-10.63 13.45,-21.22 20.01,-32.31 5,-8.45 17,-25.19 19.65,-33.3 -11.29,-6.88 -21.64,-16.55 -33.55,-24.39l-41.1 65.07c-13.66,22.32 -27.01,44 -41.03,66.52l-164.08 266.2c-22.11,35.25 -61.51,103.41 -81.7,132.54z"/>
   <path class="fil0" d="M958.56 1378.55l610.22 0.07c-5.46,-12.41 -12.21,-25.53 -18.61,-37.71 -169.06,-1.56 -351.76,-0.02 -521.1,0.02l-61.78 0.03c-2.02,4.33 -9.17,32.39 -8.73,37.59z"/>
   <path class="fil0" d="M256.39 1099.59l42.98 3.46 36.14 -58.07c12.42,-19.56 24.19,-39.13 36.58,-59.37l219.07 -355.97c-3.67,-2.44 -28.47,-23.56 -29.27,-25.48 -10.37,13.15 -213.87,345.72 -229.9,371.75 -8.59,13.95 -74.44,118.85 -75.61,123.67z"/>
   <path class="fil0" d="M1129.39 199.14c1.87,6.08 13.2,22.78 17.26,29.3l237.98 385.63c6.54,10.48 12.25,19.46 18.36,29.55 4.01,6.61 13.98,24.37 18.55,28.63l37.77 -11.02c-3.36,-7.91 -13.5,-22.92 -18.55,-30.82l-286.67 -464.02c-8.22,9.54 -17.92,21.97 -24.7,32.76z"/>
   <path class="fil0" d="M366.56 1946.24l78.34 0.14 0.03 -273.75c-50.29,0.72 -78.35,46.48 -78.41,97.78 -0.07,58.51 -0.52,117.35 0.05,175.83z"/>
   <path class="fil0" d="M976.8 1303.34l551.06 0.13c-5.11,-11.28 -17.16,-24.89 -23.71,-33.97l-515.26 -0.09 -12.08 33.93z"/>
   <path class="fil0" d="M1344.5 688.96l37.17 -6.39c-39.86,-68.2 -94.77,-154.43 -137.55,-223.22 -23.12,-37.17 -45.77,-74.07 -68.73,-111.54l-51.62 -83.52c-4.31,-7.01 -13.05,-23.12 -17.65,-28.04 -5.85,8.16 -11.08,19.15 -15.8,28.44 -4.86,9.58 -1.66,10.23 10.06,28.9l244.12 395.36z"/>
   <path class="fil0" d="M344.62 1102.88l43.45 -2.29c4.14,-9.92 182.22,-296.37 192.78,-313.2 21.46,-34.19 43.84,-69.66 64.15,-104.23 -3.67,-5.97 -19.43,-21.08 -24.88,-26.92 -46.72,73.95 -91.34,148.6 -137.66,222.99 -23.19,37.24 -45.92,73.33 -68.85,111.36l-68.99 112.27z"/>
   <path class="fil0" d="M868.6 1164.89l534.66 0c-6.87,-7.3 -33.15,-28.8 -42.77,-28.8l-430.25 -0.09c-7.69,-0.01 -15.73,-0.25 -23.36,-0.1 -13.72,0.27 -29.03,20.58 -38.28,29z"/>
   <path class="fil0" d="M1300.21 695.57l-233.44 -378.64c-4.1,5.86 -8.41,20.45 -10.89,28.04 -5.57,17.03 -2.08,15.64 5.53,28.29l183.48 297.65c2.72,4.5 5.17,8.24 7.77,12.57 3.11,5.17 3.5,8.72 9.61,10.4 9.4,2.58 27.55,2.52 37.94,1.69z"/>
   <path class="fil0" d="M437.77 1094.24c8.21,-0.85 42.4,-5.44 47.13,-11.86l100.91 -163.61c20.82,-33.92 41.14,-67.52 62.16,-100.62 10.54,-16.59 20.45,-33.3 31.06,-50.34 10.33,-16.59 12.3,-15.58 7.84,-25.97 -4.24,-9.89 -9.2,-19.23 -15.37,-25.61l-3.92 5.12c-1.35,2.08 -2.67,4.39 -3.85,6.31l-211.27 342.51c-4.73,7.73 -10.67,16.26 -14.7,24.08z"/>
   <path class="fil0" d="M535 1071.16c9.45,-2.29 41.7,-11.51 46.89,-19.65 2.92,-4.57 5.93,-9.81 8.78,-14.52 11.38,-18.81 22.58,-37.14 34.38,-55.72 46.27,-72.9 91.77,-148.98 137.63,-222.85 6.16,-9.92 49.99,-75.77 49.03,-84.79 -1.21,-11.35 -6.07,-25.74 -9.45,-35.52 -5.27,6.22 -12.38,19.08 -16.92,26.57l-250.33 406.49z"/>
   <path class="fil0" d="M1005.91 1232.68l466.66 -0.02c-3.99,-5.75 -11,-13.16 -15.62,-18.04 -16.95,-17.9 -10.92,-14.14 -45.59,-14.16l-377.92 -0.1c-10.58,0.01 -23.92,23.01 -27.53,32.31z"/>
   <path class="fil0" d="M1307.87 841l-133.15 -216.31c-4.39,-7.06 -128.63,-210.1 -134.2,-216.19 -2.59,8.88 -5.71,26.22 -6.75,36.43 -1.14,11.2 9.06,22.46 14.02,30.62 67.5,111.11 137.49,221.07 204.57,331.77 2.85,4.7 5.38,8.84 8.3,13.57 4.29,6.95 3.22,7.96 12.07,10.96 11.17,3.78 23.31,7.44 35.15,9.15z"/>
   <path class="fil0" d="M770.5 1059.07l444.05 0.02 -48.69 -15.41c-128.54,-34.51 -273.55,-30.44 -395.36,15.38z"/>
   <path class="fil0" d="M727.41 970.43c31.87,-20.05 86.04,-78.26 109.21,-107.57 10.6,-13.41 20.77,-27.49 30.21,-42.49 34.28,-54.48 75.97,-141.66 82.14,-208.5l-221.56 358.55z"/>
   <path class="fil0" d="M1258.46 971.67l-110.91 -180.28c-18.62,-30.53 -36.39,-59.95 -55.48,-89.89 -5.6,-8.8 -54.89,-87.35 -54.64,-89.93 -1.62,19.39 23.93,94.24 31.12,112.24 22.61,56.63 69.86,135.29 113.52,178.5 12.23,12.1 22.5,24.69 36.27,36.35l40.12 33.02z"/>
   <path class="fil0" d="M1190.57 819.7c4.23,-5.81 6.69,-14.86 9.68,-21.91 5.63,-13.26 6.74,-10.31 -0.76,-22.01 -8.53,-13.31 -15.99,-26.15 -24.43,-39.54l-122.05 -197.75c-7.97,-12.69 -16.63,-28.81 -25,-40 -1.06,67.87 -5.48,48.56 23.94,96.49l138.61 224.72z"/>
   <path class="fil0" d="M625.21 1034.44c13.29,-7.01 27.42,-14.07 40.26,-21.59 8.65,-5.07 12.27,-5.84 17.5,-14.3l61.02 -98.88c33.22,-51.6 64.15,-106.31 97.06,-157.84 -8.48,0.55 -17.38,2.43 -26.11,3.64 -15.25,2.12 -12.32,0.63 -19.37,12.26l-170.36 276.71z"/>
   <path class="fil0" d="M969 1110.64l353.71 -0.03c-5.96,-4.95 -20.7,-12.39 -28.58,-16.54 -9.84,-5.17 -19.62,-12.37 -32.48,-12.37l-316.61 0.11c7.68,10.03 17.03,18.92 23.97,28.83z"/>
   <path class="fil0" d="M365.23 1627l190.04 0.16c5.91,-0.62 2.66,0.63 4.96,-1.71 1.95,-2.17 6.05,-39.19 6.38,-45.07l-200.85 0.05 -0.52 46.57z"/>
   <path class="fil0" d="M627.95 0l-2.75 0 -96.95 158.04c6.09,4.14 13.38,9 19.59,13.51 5.18,3.77 15.67,12 20.46,13.92l100.29 -162.2 -40.64 -23.28z"/>
   <path class="fil0" d="M1985.51 1017.36l0 -2.45c-5.88,-5.22 -41.74,-66 -49.06,-77.82l-36.04 -58.46c-4.19,-6.67 -7.73,-13.51 -12.3,-19.55l-45.96 17.9 100.06 162.14c13.96,-4.24 29.8,-16.45 43.29,-21.77z"/>
   <path class="fil0" d="M385.11 1460.43l204.99 0.11c4.8,-2.42 5.51,-12.85 7.21,-18.51 2.34,-7.76 5.02,-14.09 6.45,-22.12l-205.45 0.02 -13.2 40.49z"/>
   <path class="fil0" d="M1675.12 927.89c3.92,4.73 8.46,13.48 12.44,19.88l64.35 104.28c6.7,10.64 21.25,31.88 25.68,42.27l44.5 -9.28 -102.97 -167.43 -43.99 10.28z"/>
   <path class="fil0" d="M667.77 265.67c10.06,9.96 21.98,19.29 31.36,29.93l102.82 -166.11c-6.72,-6.89 -24.29,-26.69 -31.69,-30.93 -4.47,11.06 -18.19,30.14 -25.15,41.82 -8.53,14.32 -17.44,28.36 -26.09,42.24 -17.43,27.99 -34.19,55.85 -51.25,83.04z"/>
   <polygon class="fil0" points="370.31,1536.5 574.12,1536.6 583.15,1497.59 376.95,1497.56 "/>
   <path class="fil0" d="M1757.87 904.83c15.13,29.03 94.52,149.03 102.17,166.69l39.79 -13.55 -101.59 -165.64 -40.38 12.49z"/>
   <path class="fil0" d="M605.46 213.69c10.95,6.24 22.88,18.11 32.36,25.59 32.73,-55.35 69.2,-111.6 102.76,-166.61 -6.06,-5.8 -24.98,-20.66 -32.73,-24.5l-102.39 165.52z"/>
   <path class="fil0" d="M415.69 1377.58l203.14 -0.08 15.06 -37.21 -197.86 -0.02c-5.68,2.76 -8.5,12.67 -11.12,17.79 -2.59,5.03 -7.53,13.97 -9.22,19.52z"/>
   <path class="fil0" d="M730.28 329.8c9.13,7.47 17.26,21.7 26.99,30.07 14.24,-17.97 80.45,-134.64 99.76,-160.8 -7.7,-12.3 -17.04,-22.89 -25.14,-34.27l-101.61 164.99z"/>
   <polygon class="fil0" points="1587.85,942.78 1687.3,1104.46 1731.04,1101.6 1629.54,936.57 "/>
   <path class="fil0" d="M457.18 1304.47c58.94,1.93 133.85,-0.1 195.26,0.35 6.31,-10.71 11.88,-23.31 18.45,-33.83l-189.92 -0.2 -23.8 33.68z"/>
   <path class="fil0" d="M1503.29 948.39l47.2 76.81c8.37,13.51 41.62,69.54 48.37,77.26l41.91 2.4c-8.84,-19.66 -88.38,-139.52 -96.93,-158.52l-40.55 2.06z"/>
   <path class="fil0" d="M782.77 392.43l22.28 31.63c24.14,-41.91 59.39,-97.05 86.31,-140.2 9.83,-15.76 12.42,-8.63 -10.85,-49.41l-97.74 157.98z"/>
   <path class="fil0" d="M710.01 1627.12l126.19 -0.02 4 -46.71 -114.92 0.03c-7.77,0 -9.51,-2.19 -11.02,4.18 -0.75,3.15 -1.28,10.67 -1.77,14.37 -0.95,7.2 -3.55,21.66 -2.49,28.16z"/>
   <path class="fil0" d="M510.88 1231.9l180.97 0.33c3.73,-0.62 25.24,-31.29 25.99,-32.59 -14.69,0.08 -171.87,-2.29 -177.84,1.82 -8.9,6.12 -20.84,24.57 -29.12,30.44z"/>
   <path class="fil0" d="M1705.46 655.26c10.74,16.49 20.72,33.88 31.5,51.24 6.01,9.68 26.37,45.1 31.98,49.98l44.8 -18.02 -63.4 -103.01 -44.87 19.81z"/>
   <path class="fil0" d="M392.36 379.28c10.1,9.33 30.28,17.18 40.21,26.97l47.28 -76.05c4.35,-7.14 12.95,-19.18 15.56,-26.16 -11.91,-6.24 -27.47,-19.48 -39.96,-27.33l-63.09 102.56z"/>
   <path class="fil0" d="M844.48 497.98c4.99,-5.62 9.02,-13.6 13.45,-20.76l41.58 -67.43c8.88,-14.46 18.18,-29.94 27.11,-44.13 8,-12.7 6.51,-8.85 1.2,-24.74 -2.45,-7.34 -6.61,-20.7 -9.86,-26.17l-55.3 90.01c-9.62,15.08 -18.42,30.49 -27.64,45.04 -7.23,11.42 -10.24,10.29 -2.88,23.4 4.42,7.87 7.74,17.81 12.33,24.79z"/>
   <path class="fil0" d="M1547.6 1096.9l-91.49 -148.65 -41.66 -2.95c11.44,21.07 39.41,63.52 54.09,87.76 9.42,15.55 17.71,28.48 27.19,44 8.36,13.68 4.26,10.25 22.08,14.05 9.95,2.12 19.81,4.16 29.78,5.79z"/>
   <path class="fil0" d="M1218.22 863.39l15.37 23.78c4.92,7.93 9.76,15.71 14.94,24.32 7.64,12.68 54.87,91.73 61.07,95.75 11.82,7.67 36.64,22.09 50.54,27.51 -13.63,-24.86 -43.03,-69.57 -59.6,-96.91 -5.1,-8.42 -9.83,-15.75 -14.99,-24.27 -6.97,-11.51 -11.06,-10.06 -22.16,-16.93 -12.28,-7.61 -37.46,-25.18 -44.03,-34.51l-1.15 1.28z"/>
   <polygon class="fil0" points="737.84,1460.48 857.43,1460.54 865.04,1420 856.11,1419.92 770.35,1419.93 748.11,1419.94 "/>
   <path class="fil0" d="M1623.83 688.7c3.74,9.48 55.83,88.74 59.26,98.09l40.66 -12.86c-12.7,-23.74 -53.06,-83.36 -61.31,-100.53l-38.61 15.31z"/>
   <path class="fil0" d="M868.11 698.99l83.58 -135.29c7.24,-11.4 5.73,-13.87 6.03,-30.25 0.2,-10.63 0.93,-26.99 -0.66,-37.08 -1.89,5.16 -9.64,16.23 -13.02,21.72 -4.76,7.73 -9.1,14.62 -13.84,22.58 -9.39,15.76 -18.54,30.04 -28.27,45.84 -4.72,7.67 -9.19,14.64 -13.91,22.37 -6.42,10.5 -10.04,11.59 -10.09,26.28 -0.08,24.63 -4.84,42.3 -9.82,63.83z"/>
   <path class="fil0" d="M534.9 481.05c10.14,6.29 24.29,18.2 33.41,25.87l58.68 -93.92c-3.27,-4.45 -26.7,-24.59 -32.35,-28.75l-59.74 96.8z"/>
   <path class="fil0" d="M661.21 1110.18l146.93 0.05c19.81,0 16.12,-4.5 40.6,-14.46l41.14 -14.37 -167.51 -0.11c-13.21,0 -52.07,22.38 -61.17,28.89z"/>
   <polygon class="fil0" points="1545.32,716.29 1603.05,810.81 1645.64,799.35 1586.25,702.28 "/>
   <path class="fil0" d="M470.05 433.11l32.84 23.42c1.08,-0.92 0.83,-0.6 2.16,-2.28l58.68 -95.23c-3.03,-3.83 -26.35,-21.81 -31.77,-25.54l-61.91 99.63z"/>
   <path class="fil0" d="M721.16 1536.49l116.13 0.19c1.56,-0.05 2.6,-0.07 4.14,-0.32 0.44,-0.07 0.85,-0.19 1.25,-0.27l7.57 -38.52 -121.61 -0.01 -7.49 38.93z"/>
   <path class="fil0" d="M1451.35 1073.46c-24.62,-41.66 -52.77,-84.35 -77.6,-125.97 -7.86,-13.18 -4.5,-9.66 -21.04,-13.65 -9.37,-2.26 -17.68,-5.51 -26.89,-7.65 11.21,20.72 62.09,101.31 77.89,126.64 5.38,8.63 36.94,17.17 47.64,20.63z"/>
   <path class="fil0" d="M581.9 1165.37c45.7,1.57 106.38,0.28 153.56,0.27 19.39,-0.01 14.78,-1.56 25.21,-11 5.39,-4.88 16.57,-13.29 19.88,-17.51l-141.03 0.05c-11.09,-0 -17.82,-1.87 -25.18,3.39l-32.44 24.8z"/>
   <path class="fil0" d="M872.09 579.34c5.54,-5.91 65.45,-105.16 75.57,-121.42 7.79,-12.51 5.42,-9.43 3.22,-25.18 -1.42,-10.23 -3,-18.8 -5.24,-28.19 -11.95,22.15 -59.61,96.52 -76.65,124.32 -7.39,12.06 -8.48,8.17 -3.85,23.31 2.3,7.51 4.23,20.69 6.94,27.15z"/>
   <polygon class="fil0" points="759.99,1377.42 874.47,1377.49 883.94,1340.19 772.08,1340.28 "/>
   <path class="fil0" d="M1462.65 740.44c6.91,12.98 51.85,82.02 54.76,89.98l41.62 -8.1 -57.23 -92.55 -39.14 10.68z"/>
   <path class="fil0" d="M602.77 534.65c5.35,5.46 9.84,8.81 15.1,13.21 5.01,4.19 9.33,9.1 14.39,12.79l55.58 -89.74 -27.91 -28.34 -57.16 92.08z"/>
   <path class="fil0" d="M660.84 589.86c5.85,7.83 17.87,20.39 24.87,27.49l53.32 -86.72c-8.12,-8.64 -15.28,-20.63 -23.91,-28.47l-54.27 87.71z"/>
   <polygon class="fil0" points="785.61,1304.52 880.82,1304.78 888.09,1304.77 893.9,1304.77 907.73,1270.99 800.75,1270.79 "/>
   <path class="fil0" d="M1385.71 755.19l53.06 86.5c7.92,-0.05 32.77,-1.83 37.38,-4.88 1.55,-1.51 2.28,1.95 -0.88,-3.71 -1,-1.79 -2.42,-3.72 -3.5,-5.44l-48.78 -78.49 -37.28 6.02z"/>
   <path class="fil0" d="M821.38 1232.22l103.05 0c4.59,-1.58 8.64,-11.39 11.48,-15.65 3.21,-4.81 9.4,-12.23 11.84,-16.88l-106.21 -0.02c-5.9,7.36 -15.36,22.48 -20.17,32.55z"/>
   <path class="fil0" d="M1354.44 845.56l39.68 0.23 -25.92 -42.5c-8.6,-13.29 -17.09,-30.39 -26.61,-42.78l-40.42 -1.24 53.27 86.29z"/>
   <path class="fil0" d="M710.54 649.5c3.83,5.67 6.25,9.61 9.76,15.5 3.39,5.7 5.77,12.17 9.35,17.06 5.52,-5.87 37.28,-59.44 45.44,-72.6 2.49,-4.02 8.25,-10.61 6.85,-15.01l-15.38 -25.29c-1.99,-2.67 -1.23,-1.91 -3.48,-4.01l-52.54 84.35z"/>
  </g>
 </g>
</svg>
