<svg class="svg-icon" style="width: 1em; height: 1em;vertical-align: middle;fill: currentColor;overflow: hidden;" viewBox="0 0 1024 1024" version="1.1" xmlns="http://www.w3.org/2000/svg"><path d="M810.666667 277.333333h-128v-42.666666a128 128 0 0 0-128-128h-85.333334a128 128 0 0 0-128 128v42.666666H213.333333a128 128 0 0 0-128 128v384a128 128 0 0 0 128 128h597.333334a128 128 0 0 0 128-128v-384a128 128 0 0 0-128-128z m-384-42.666666a42.666667 42.666667 0 0 1 42.666666-42.666667h85.333334a42.666667 42.666667 0 0 1 42.666666 42.666667v42.666666h-170.666666z m426.666666 554.666666a42.666667 42.666667 0 0 1-42.666666 42.666667H213.333333a42.666667 42.666667 0 0 1-42.666666-42.666667v-215.466666h128v44.8a42.666667 42.666667 0 0 0 85.333333 0v-44.8h256v44.8a42.666667 42.666667 0 0 0 85.333333 0v-44.8h128z m0-298.666666H170.666667v-85.333334a42.666667 42.666667 0 0 1 42.666666-42.666666h597.333334a42.666667 42.666667 0 0 1 42.666666 42.666666z"  /></svg>