<svg width="1024" height="1024" xmlns="http://www.w3.org/2000/svg" version="1.1" class="svg-icon">

 <g>
  <title>Layer 1</title>
  <path fill="#ffffff" id="svg_1" d="m810.66667,277.33333l-128,0l0,-42.66666a128,128 0 0 0 -128,-128l-85.33334,0a128,128 0 0 0 -128,128l0,42.66666l-128,0a128,128 0 0 0 -128,128l0,384a128,128 0 0 0 128,128l597.33334,0a128,128 0 0 0 128,-128l0,-384a128,128 0 0 0 -128,-128zm-384,-42.66666a42.66667,42.66667 0 0 1 42.66666,-42.66667l85.33334,0a42.66667,42.66667 0 0 1 42.66666,42.66667l0,42.66666l-170.66666,0l0,-42.66666zm426.66666,554.66666a42.66667,42.66667 0 0 1 -42.66666,42.66667l-597.33334,0a42.66667,42.66667 0 0 1 -42.66666,-42.66667l0,-215.46666l128,0l0,44.8a42.66667,42.66667 0 0 0 85.33333,0l0,-44.8l256,0l0,44.8a42.66667,42.66667 0 0 0 85.33333,0l0,-44.8l128,0l0,215.46666zm0,-298.66666l-682.66666,0l0,-85.33334a42.66667,42.66667 0 0 1 42.66666,-42.66666l597.33334,0a42.66667,42.66667 0 0 1 42.66666,42.66666l0,85.33334z"/>
 </g>
</svg>